<svg width="18" height="20" viewBox="0 0 18 20" fill="none" xmlns="http://www.w3.org/2000/svg">
<path fill-rule="evenodd" clip-rule="evenodd" d="M13.4941 0.803072C13.4422 0.350946 13.0617 0 12.6002 0C12.1031 0 11.7002 0.407014 11.7002 0.909091V1.81818H6.3V0.909091L6.29395 0.803072C6.24196 0.350946 5.86155 0 5.4 0C4.90294 0 4.5 0.407014 4.5 0.909091V1.81818H2.7C1.20883 1.81818 0 3.03922 0 4.54545V8.18182V17.2727C0 18.779 1.20883 20 2.7 20H15.3C16.7912 20 18 18.779 18 17.2727V8.18182V4.54545C18 3.03922 16.7912 1.81818 15.3 1.81818H13.5002V0.909091L13.4941 0.803072ZM16.1998 7.27273V4.54551C16.1998 4.04343 15.7969 3.63642 15.2998 3.63642H13.5002V4.54545C13.5002 5.04753 13.0973 5.45455 12.6002 5.45455C12.1386 5.45455 11.7582 5.1036 11.7063 4.65147L11.7002 4.54545V3.63642H6.3V4.54545C6.3 5.04753 5.89706 5.45455 5.4 5.45455C4.93845 5.45455 4.55804 5.1036 4.50605 4.65147L4.5 4.54545V3.63642H2.6998C2.20275 3.63642 1.7998 4.04343 1.7998 4.54551V7.27273H16.1998ZM1.7998 9.09091H16.1998V17.2728C16.1998 17.7749 15.7969 18.1819 15.2998 18.1819H2.6998C2.20275 18.1819 1.7998 17.7749 1.7998 17.2728V9.09091Z" fill="#A6A6A6"/>
</svg>
