<svg width="7" height="13" viewBox="0 0 7 13" fill="none" xmlns="http://www.w3.org/2000/svg">
<mask id="path-1-outside-1_1_1318" maskUnits="userSpaceOnUse" x="0" y="0" width="8" height="13" fill="black">
<rect fill="white" width="8" height="13"/>
<path fill-rule="evenodd" clip-rule="evenodd" d="M1.11336 1.65904L6.06687 6.6004L1.11327 11.5446C0.962313 11.6952 0.962232 11.9396 1.11309 12.0904C1.26392 12.2412 1.50852 12.2412 1.65945 12.0906L6.88673 6.87321C7.03779 6.72243 7.03775 6.47783 6.88664 6.3271L1.65937 1.11285C1.5084 0.962249 1.26379 0.962404 1.11301 1.11319C0.962195 1.26402 0.96235 1.50841 1.11336 1.65904Z"/>
</mask>
<path fill-rule="evenodd" clip-rule="evenodd" d="M1.11336 1.65904L6.06687 6.6004L1.11327 11.5446C0.962313 11.6952 0.962232 11.9396 1.11309 12.0904C1.26392 12.2412 1.50852 12.2412 1.65945 12.0906L6.88673 6.87321C7.03779 6.72243 7.03775 6.47783 6.88664 6.3271L1.65937 1.11285C1.5084 0.962249 1.26379 0.962404 1.11301 1.11319C0.962195 1.26402 0.96235 1.50841 1.11336 1.65904Z" fill="#373737"/>
<path d="M6.06687 6.6004L6.2788 6.81273L6.4916 6.60034L6.27874 6.38801L6.06687 6.6004ZM1.11336 1.65904L1.32523 1.44665L1.32522 1.44665L1.11336 1.65904ZM1.11327 11.5446L0.901344 11.3322L0.901343 11.3322L1.11327 11.5446ZM1.11309 12.0904L1.32516 11.8782L1.32516 11.8782L1.11309 12.0904ZM1.65945 12.0906L1.87138 12.3029L1.87138 12.3029L1.65945 12.0906ZM6.88673 6.87321L6.6748 6.66088L6.67479 6.66088L6.88673 6.87321ZM6.88664 6.3271L6.67478 6.53949V6.53949L6.88664 6.3271ZM1.65937 1.11285L1.4475 1.32524L1.4475 1.32525L1.65937 1.11285ZM1.11301 1.11319L0.900874 0.901066L0.900873 0.901067L1.11301 1.11319ZM6.27874 6.38801L1.32523 1.44665L0.901485 1.87144L5.855 6.81279L6.27874 6.38801ZM1.3252 11.7569L6.2788 6.81273L5.85494 6.38807L0.901344 11.3322L1.3252 11.7569ZM1.32516 11.8782C1.2916 11.8447 1.29161 11.7904 1.32521 11.7569L0.901343 11.3322C0.633012 11.6001 0.632867 12.0346 0.901019 12.3026L1.32516 11.8782ZM1.44752 11.8783C1.41376 11.912 1.35891 11.9119 1.32516 11.8782L0.901019 12.3026C1.16894 12.5704 1.60329 12.5705 1.87138 12.3029L1.44752 11.8783ZM6.67479 6.66088L1.44752 11.8783L1.87138 12.3029L7.09866 7.08554L6.67479 6.66088ZM6.67478 6.53949C6.7084 6.57303 6.70841 6.62733 6.6748 6.66088L7.09866 7.08554C7.36717 6.81754 7.36711 6.38263 7.09851 6.1147L6.67478 6.53949ZM1.4475 1.32525L6.67478 6.53949L7.09851 6.1147L1.87124 0.900452L1.4475 1.32525ZM1.32515 1.32532C1.35888 1.29159 1.41373 1.29155 1.4475 1.32524L1.87124 0.900452C1.60306 0.632944 1.16871 0.633217 0.900874 0.901066L1.32515 1.32532ZM1.32522 1.44665C1.29162 1.41313 1.29159 1.35888 1.32515 1.32532L0.900873 0.901067C0.632802 1.16915 0.633078 1.6037 0.901489 1.87144L1.32522 1.44665Z" fill="#373737" mask="url(#path-1-outside-1_1_1318)"/>
</svg>
