<svg width="40" height="40" viewBox="0 0 40 40" fill="none" xmlns="http://www.w3.org/2000/svg">
<circle r="20" transform="matrix(-1 0 0 1 20 20)" fill="white"/>
<path d="M15.4587 24.7972C15.7219 24.5299 15.7219 24.0981 15.4587 23.8307L12.3364 20.6844H28.3212C28.6961 20.6844 29 20.3775 29 19.9989C29 19.6203 28.6961 19.3134 28.3212 19.3134H12.3568L15.4587 16.1808C15.7268 15.912 15.7283 15.4747 15.4621 15.204C15.196 14.9333 14.7629 14.9318 14.4949 15.2006L10.178 19.5671C9.94067 19.8078 9.94067 20.1969 10.178 20.4376L14.4949 24.7972C14.6223 24.927 14.7958 25 14.9768 25C15.1578 25 15.3313 24.927 15.4587 24.7972Z" fill="black"/>
</svg>
