<svg width="12" height="21" viewBox="0 0 12 21" fill="none" xmlns="http://www.w3.org/2000/svg">
<mask id="path-1-outside-1_1_701" maskUnits="userSpaceOnUse" x="0" y="0" width="12" height="21" fill="black">
<rect fill="white" width="12" height="21"/>
<path fill-rule="evenodd" clip-rule="evenodd" d="M10.8111 2.09841L2.55521 10.334L10.8112 18.5743C11.0628 18.8254 11.0629 19.2327 10.8115 19.484C10.5601 19.7353 10.1525 19.7354 9.90091 19.4843L1.18879 10.7887C0.937016 10.5374 0.937078 10.1297 1.18893 9.87849L9.90105 1.18808C10.1527 0.937081 10.5603 0.93734 10.8117 1.18866C11.063 1.44003 11.0628 1.84736 10.8111 2.09841Z"/>
</mask>
<path fill-rule="evenodd" clip-rule="evenodd" d="M10.8111 2.09841L2.55521 10.334L10.8112 18.5743C11.0628 18.8254 11.0629 19.2327 10.8115 19.484C10.5601 19.7353 10.1525 19.7354 9.90091 19.4843L1.18879 10.7887C0.937016 10.5374 0.937078 10.1297 1.18893 9.87849L9.90105 1.18808C10.1527 0.937081 10.5603 0.93734 10.8117 1.18866C11.063 1.44003 11.0628 1.84736 10.8111 2.09841Z" fill="white"/>
<path d="M2.55521 10.334L2.30796 10.5817L2.0597 10.3339L2.30803 10.0862L2.55521 10.334ZM10.8111 2.09841L10.5639 1.85061L10.5639 1.85061L10.8111 2.09841ZM10.8112 18.5743L11.0585 18.3266L11.0585 18.3266L10.8112 18.5743ZM10.8115 19.484L11.0589 19.7316H11.0589L10.8115 19.484ZM9.90091 19.4843L9.65366 19.7321H9.65366L9.90091 19.4843ZM1.18879 10.7887L0.941537 11.0364L1.18879 10.7887ZM1.18893 9.87849L1.43611 10.1263L1.18893 9.87849ZM9.90105 1.18808L10.1482 1.43588L10.1482 1.43588L9.90105 1.18808ZM10.8117 1.18866L11.0591 0.941176L11.0591 0.941176L10.8117 1.18866ZM2.30803 10.0862L10.5639 1.85061L11.0583 2.3462L2.8024 10.5818L2.30803 10.0862ZM10.564 18.822L2.30796 10.5817L2.80246 10.0863L11.0585 18.3266L10.564 18.822ZM10.5641 19.2365C10.6787 19.1219 10.6786 18.9365 10.564 18.822L11.0585 18.3266C11.447 18.7144 11.4472 19.3435 11.0589 19.7316L10.5641 19.2365ZM10.1482 19.2366C10.263 19.3512 10.4493 19.3512 10.5641 19.2365L11.0589 19.7316C10.6709 20.1194 10.0419 20.1196 9.65366 19.7321L10.1482 19.2366ZM1.43604 10.541L10.1482 19.2366L9.65366 19.7321L0.941537 11.0364L1.43604 10.541ZM1.43611 10.1263C1.32132 10.2408 1.32129 10.4264 1.43604 10.541L0.941537 11.0364C0.552738 10.6483 0.552835 10.0186 0.94175 9.6307L1.43611 10.1263ZM10.1482 1.43588L1.43611 10.1263L0.94175 9.6307L9.65387 0.940284L10.1482 1.43588ZM10.5642 1.43614C10.4494 1.32139 10.2631 1.32127 10.1482 1.43588L9.65387 0.940285C10.0422 0.55289 10.6713 0.553291 11.0591 0.941176L10.5642 1.43614ZM10.5639 1.85061C10.6786 1.73619 10.6787 1.5507 10.5642 1.43614L11.0591 0.941176C11.4473 1.32935 11.4469 1.95852 11.0583 2.3462L10.5639 1.85061Z" fill="white" mask="url(#path-1-outside-1_1_701)"/>
</svg>
