<svg width="34" height="34" viewBox="0 0 34 34" fill="none" xmlns="http://www.w3.org/2000/svg">
<rect width="34" height="34" rx="5" fill="white" fill-opacity="0.2"/>
<path fill-rule="evenodd" clip-rule="evenodd" d="M17.004 5C15.8228 5.0378 14.8741 5.98655 14.8363 7.16776V7.83713C11.1046 8.77463 8.50018 12.1454 8.53466 15.9928V22.807L6.08123 25.2492C6.0288 25.302 5.99958 25.3736 6.00001 25.448V26.7056C6.00001 26.8602 6.1254 26.9856 6.28008 26.9856H14.2033V27.1201C14.2033 28.6669 15.4572 29.9208 17.004 29.9208C18.5508 29.9208 19.8047 28.6669 19.8047 27.1201V26.9856H27.7196C27.8743 26.9856 27.9996 26.8602 27.9996 26.7056V25.448C28.0023 25.3748 27.9762 25.3034 27.9268 25.2492L25.4846 22.807V15.9956C25.5191 12.1482 22.9146 8.77743 19.183 7.83993V7.16776C19.1449 5.98236 18.1896 5.032 17.004 5ZM19.2448 27.1256C19.2448 28.3631 18.2417 29.3662 17.0042 29.3662C15.7668 29.3662 14.7637 28.3631 14.7637 27.1256V26.9856H19.2448V27.1256ZM24.9131 22.9219V15.9957C24.9414 12.3287 22.408 9.13868 18.8299 8.33575C18.7007 8.30527 18.6107 8.18834 18.6142 8.05568V7.16785C18.6142 6.27922 17.8939 5.55884 17.0052 5.55884C16.1166 5.55884 15.3962 6.27922 15.3962 7.16785V8.04728C15.3998 8.17993 15.3097 8.29687 15.1806 8.32735C11.5971 9.12867 9.06008 12.3239 9.09181 15.9957V22.9219C9.09224 22.9963 9.06301 23.0679 9.01059 23.1207L6.56836 25.563V26.4256H27.4365V25.563L24.9943 23.1207C24.9419 23.0679 24.9126 22.9963 24.9131 22.9219Z" fill="black"/>
<path d="M14.8363 7.16776L14.3365 7.15176L14.3363 7.15976V7.16776H14.8363ZM17.004 5L17.0175 4.50018L17.0028 4.49978L16.988 4.50026L17.004 5ZM14.8363 7.83713L14.9581 8.32206L15.3363 8.22705V7.83713H14.8363ZM8.53465 15.9928H9.03467L9.03463 15.9883L8.53465 15.9928ZM8.53465 22.807L8.8874 23.1613L9.03465 23.0147V22.807H8.53465ZM6.08123 25.2492L5.72847 24.8948L5.72623 24.8971L6.08123 25.2492ZM6 25.448H6.50001L6.5 25.4451L6 25.448ZM14.2033 26.9856H14.7033V26.4856H14.2033V26.9856ZM19.8047 26.9856V26.4856H19.3047V26.9856H19.8047ZM27.9996 25.448L27.5 25.4297L27.4996 25.4389V25.448H27.9996ZM27.9268 25.2492L28.2965 24.9125L28.2886 24.9039L28.2804 24.8956L27.9268 25.2492ZM25.4846 22.807H24.9846V23.0141L25.131 23.1605L25.4846 22.807ZM25.4846 15.9956L24.9846 15.9911V15.9956H25.4846ZM19.183 7.83993H18.683V8.22985L19.0612 8.32486L19.183 7.83993ZM19.183 7.16776H19.683V7.15972L19.6827 7.15169L19.183 7.16776ZM14.7637 26.9856V26.4856H14.2637V26.9856H14.7637ZM19.2448 26.9856H19.7448V26.4856H19.2448V26.9856ZM24.9131 15.9957L24.4131 15.9919V15.9957H24.9131ZM24.9131 22.9219L25.4131 22.9248V22.9219H24.9131ZM18.8299 8.33575L18.7151 8.82242L18.7204 8.82362L18.8299 8.33575ZM18.6142 8.05568L19.1142 8.06905V8.05568H18.6142ZM15.3962 8.04728H14.896L14.8964 8.06064L15.3962 8.04728ZM15.1806 8.32735L15.2897 8.81533L15.2954 8.81398L15.1806 8.32735ZM9.0918 15.9957H9.59182L9.59178 15.9914L9.0918 15.9957ZM9.0918 22.9219H8.59179L8.59181 22.9248L9.0918 22.9219ZM9.01058 23.1207L9.36414 23.4743L9.36557 23.4728L9.01058 23.1207ZM6.56835 25.563L6.2148 25.2094L6.06835 25.3559V25.563H6.56835ZM6.56835 26.4256H6.06835V26.9256H6.56835V26.4256ZM27.4365 26.4256V26.9256H27.9365V26.4256H27.4365ZM27.4365 25.563H27.9365V25.3559L27.7901 25.2094L27.4365 25.563ZM24.9943 23.1207L24.6393 23.4729L24.6407 23.4743L24.9943 23.1207ZM15.336 7.18375C15.3654 6.26614 16.1024 5.52911 17.02 5.49974L16.988 4.50026C15.5432 4.5465 14.3828 5.70696 14.3365 7.15176L15.336 7.18375ZM15.3363 7.83713V7.16776H14.3363V7.83713H15.3363ZM9.03463 15.9883C9.00222 12.3718 11.4504 9.2033 14.9581 8.32206L14.7144 7.3522C10.7589 8.34595 7.99812 11.919 8.03467 15.9973L9.03463 15.9883ZM9.03465 22.807V15.9928H8.03465V22.807H9.03465ZM6.43397 25.6035L8.8874 23.1613L8.18191 22.4526L5.72848 24.8948L6.43397 25.6035ZM6.5 25.4451C6.50033 25.5036 6.47738 25.5598 6.43622 25.6013L5.72623 24.8971C5.58021 25.0443 5.49881 25.2436 5.50001 25.4509L6.5 25.4451ZM6.5 26.7056V25.448H5.5V26.7056H6.5ZM6.28008 26.4856C6.40154 26.4856 6.5 26.5841 6.5 26.7056H5.5C5.5 27.1364 5.84926 27.4856 6.28008 27.4856V26.4856ZM14.2033 26.4856H6.28008V27.4856H14.2033V26.4856ZM14.7033 27.1201V26.9856H13.7033V27.1201H14.7033ZM17.004 29.4208C15.7334 29.4208 14.7033 28.3907 14.7033 27.1201H13.7033C13.7033 28.943 15.1811 30.4208 17.004 30.4208V29.4208ZM19.3047 27.1201C19.3047 28.3907 18.2747 29.4208 17.004 29.4208V30.4208C18.827 30.4208 20.3047 28.943 20.3047 27.1201H19.3047ZM19.3047 26.9856V27.1201H20.3047V26.9856H19.3047ZM27.7196 26.4856H19.8047V27.4856H27.7196V26.4856ZM27.4996 26.7056C27.4996 26.5841 27.5981 26.4856 27.7196 26.4856V27.4856C28.1504 27.4856 28.4996 27.1364 28.4996 26.7056H27.4996ZM27.4996 25.448V26.7056H28.4996V25.448H27.4996ZM27.5572 25.5859C27.5184 25.5433 27.4979 25.4872 27.5 25.4297L28.4993 25.4664C28.5068 25.2623 28.434 25.0635 28.2965 24.9125L27.5572 25.5859ZM25.131 23.1605L27.5733 25.6027L28.2804 24.8956L25.8382 22.4534L25.131 23.1605ZM24.9846 15.9956V22.807H25.9846V15.9956H24.9846ZM19.0612 8.32486C22.5689 9.2061 25.017 12.3746 24.9846 15.9911L25.9846 16.0001C26.0211 11.9218 23.2604 8.34875 19.3048 7.355L19.0612 8.32486ZM18.683 7.16776V7.83993H19.683V7.16776H18.683ZM16.9905 5.49982C17.9115 5.52468 18.6536 6.26296 18.6832 7.18382L19.6827 7.15169C19.6361 5.70176 18.4677 4.53933 17.0175 4.50018L16.9905 5.49982ZM17.0042 29.8662C18.5178 29.8662 19.7448 28.6392 19.7448 27.1256H18.7448C18.7448 28.0869 17.9655 28.8662 17.0042 28.8662V29.8662ZM14.2637 27.1256C14.2637 28.6392 15.4907 29.8662 17.0042 29.8662V28.8662C16.0429 28.8662 15.2637 28.0869 15.2637 27.1256H14.2637ZM14.2637 26.9856V27.1256H15.2637V26.9856H14.2637ZM19.2448 26.4856H14.7637V27.4856H19.2448V26.4856ZM19.7448 27.1256V26.9856H18.7448V27.1256H19.7448ZM24.4131 15.9957V22.9219H25.4131V15.9957H24.4131ZM18.7204 8.82362C22.0688 9.575 24.4396 12.5603 24.4131 15.9919L25.413 15.9996C25.4432 12.0972 22.7472 8.70236 18.9394 7.84788L18.7204 8.82362ZM18.1144 8.04232C18.1045 8.41181 18.3553 8.73751 18.7151 8.82239L18.9447 7.84911C19.0461 7.87304 19.1168 7.96487 19.1141 8.06904L18.1144 8.04232ZM18.1142 7.16785V8.05568H19.1142V7.16785H18.1142ZM17.0052 6.05884C17.6177 6.05884 18.1142 6.55536 18.1142 7.16785H19.1142C19.1142 6.00308 18.17 5.05884 17.0052 5.05884V6.05884ZM15.8962 7.16785C15.8962 6.55536 16.3927 6.05884 17.0052 6.05884V5.05884C15.8405 5.05884 14.8962 6.00307 14.8962 7.16785H15.8962ZM15.8962 8.04728V7.16785H14.8962V8.04728H15.8962ZM15.2954 8.81398C15.6551 8.7291 15.9059 8.4034 15.896 8.03391L14.8964 8.06064C14.8936 7.95647 14.9643 7.86464 15.0657 7.84071L15.2954 8.81398ZM9.59178 15.9914C9.56209 12.5553 11.9363 9.56518 15.2897 8.8153L15.0714 7.8394C11.258 8.69216 8.55806 12.0925 8.59182 16L9.59178 15.9914ZM9.5918 22.9219V15.9957H8.5918V22.9219H9.5918ZM9.36557 23.4728C9.51159 23.3256 9.59299 23.1263 9.59179 22.919L8.59181 22.9248C8.59147 22.8663 8.61442 22.8101 8.65559 22.7686L9.36557 23.4728ZM6.92191 25.9165L9.36413 23.4743L8.65703 22.7672L6.2148 25.2094L6.92191 25.9165ZM7.06835 26.4256V25.563H6.06835V26.4256H7.06835ZM27.4365 25.9256H6.56835V26.9256H27.4365V25.9256ZM26.9365 25.563V26.4256H27.9365V25.563H26.9365ZM24.6407 23.4743L27.083 25.9165L27.7901 25.2094L25.3478 22.7672L24.6407 23.4743ZM24.4131 22.919C24.4119 23.1263 24.4933 23.3256 24.6393 23.4728L25.3493 22.7686C25.3904 22.8101 25.4134 22.8663 25.413 22.9248L24.4131 22.919Z" fill="white"/>
<circle cx="23.1328" cy="11.7493" r="4.13428" fill="#FF1212" stroke="#7ABEFD"/>
</svg>
