<svg width="22" height="20" viewBox="0 0 22 20" fill="none" xmlns="http://www.w3.org/2000/svg">
<path fill-rule="evenodd" clip-rule="evenodd" d="M9.99451 18.8507L10 19C10 20.2874 11.8644 20.3317 11.993 19.1332C11.9976 19.0904 12 19.046 12 19C12 17.8954 12.8954 17 14 17H21C21.5523 17 22 16.5523 22 16V1C22 0.447715 21.5523 0 21 0H15C13.3644 0 11.9122 0.785345 11 1.99952C10.0878 0.785345 8.6356 0 7 0H1C0.447715 0 0 0.447715 0 1V16C0 16.5523 0.447715 17 1 17H8C9.05436 17 9.91817 17.8159 9.99451 18.8507ZM12 15.535L12.1451 15.4552C12.6441 15.1935 13.2051 15.0342 13.8004 15.0049L14 15H20V2H15C13.3431 2 12 3.34315 12 5V15.535ZM10 15.536V5C10 3.40232 8.75108 2.09634 7.17627 2.00509L7 2H2V15H8C8.66944 15 9.30046 15.1645 9.85489 15.4552L10 15.536Z" fill="#A6A6A6"/>
</svg>
