<svg width="24" height="24" viewBox="0 0 24 24" fill="none" xmlns="http://www.w3.org/2000/svg">
<circle cx="12" cy="12.0001" r="12" fill="#59AEFD"/>
<path fill-rule="evenodd" clip-rule="evenodd" d="M16.3094 8.52234H14.4901L13.9332 7.40848C13.8094 7.16095 13.5495 7.00006 13.2649 7.00006H10.4926C10.2079 7.00006 9.94802 7.16095 9.82426 7.40848L9.26733 8.52234H7.44802C6.64356 8.52234 6 9.1659 6 9.95798V15.552C6 16.3441 6.64356 17.0001 7.44802 17.0001H16.3218C17.1139 17.0001 17.7698 16.3565 17.7698 15.552V9.95798C17.7574 9.1659 17.1139 8.52234 16.3094 8.52234ZM11.8783 15.1436C10.4798 15.1436 9.35352 14.0173 9.35352 12.6188C9.35352 11.2203 10.4798 10.0941 11.8783 10.0941C13.2768 10.0941 14.403 11.2203 14.403 12.6188C14.403 14.0173 13.2768 15.1436 11.8783 15.1436ZM10.1953 12.6188C10.1953 11.6906 10.9503 10.9356 11.8785 10.9356C12.1136 10.9356 12.3116 11.1336 12.3116 11.3688C12.3116 11.6039 12.1136 11.8019 11.8785 11.8019C11.4206 11.8019 11.0616 12.1732 11.0616 12.6188C11.0616 12.8539 10.8636 13.0519 10.6285 13.0519C10.3933 13.0519 10.1953 12.8539 10.1953 12.6188Z" fill="white"/>
</svg>
