<svg width="36" height="36" viewBox="0 0 36 36" fill="none" xmlns="http://www.w3.org/2000/svg">
<circle cx="18" cy="18" r="18" fill="#F3FFFC"/>
<path fill-rule="evenodd" clip-rule="evenodd" d="M19.8773 25.112C20.6534 25.403 21.3324 25.5 21.8175 25.5C22.2055 25.5 22.4966 25.403 22.7876 25.306C23.2727 25.209 23.6607 24.9179 23.9517 24.6269L25.1159 23.4628C25.5039 22.9777 25.8919 22.0076 25.0188 21.1345L23.0786 19.1943C22.5936 18.8063 21.7205 18.4182 20.7504 19.1943L19.5862 20.3584C19.2952 20.2614 19.0042 20.0674 18.7132 19.8734C18.4221 19.6794 17.646 19.0973 17.258 18.7093L17.064 18.6122L16.6759 18.2242C16.2879 17.8362 15.7058 17.0601 15.5118 16.769C15.3178 16.478 15.1238 16.09 15.0267 15.896L16.1909 14.7318C16.967 13.8587 16.5789 12.8886 16.1909 12.5006L14.2507 10.5604C13.3776 9.68727 12.4075 9.9783 11.9224 10.4634L10.7583 11.6275C10.4673 11.9185 10.1762 12.3066 10.0792 12.6946C9.9822 13.1797 9.88519 14.1498 10.3702 15.5079C10.7583 16.769 11.2433 17.7392 11.9224 18.9033C12.6985 19.9704 13.6686 21.0375 13.8626 21.2315H13.9596L14.2507 21.5226C14.2507 21.5226 15.4148 22.6867 16.5789 23.4628C17.646 24.1419 18.6161 24.7239 19.8773 25.112ZM17.1613 22.6867C16.0942 21.9106 14.9301 20.8435 14.9301 20.8435L14.6391 20.5525C14.445 20.3585 13.4749 19.2913 12.7959 18.3212C12.1168 17.2541 11.6317 16.381 11.2437 15.2169C10.8556 14.1498 10.9526 13.3737 11.0497 12.9857C11.1467 12.6946 11.4377 12.4036 11.5347 12.3066L12.5048 11.1425C12.6988 11.0454 13.0869 10.8514 13.4749 11.2395L15.4151 13.1797C15.5121 13.2767 15.8032 13.5677 15.4151 14.0528L14.154 15.3139C14.057 15.5079 13.863 15.896 14.057 16.187C14.0826 16.2382 14.1149 16.3164 14.154 16.4108C14.2631 16.6746 14.4248 17.0654 14.6391 17.3511C14.9301 17.7392 15.5121 18.5153 15.9002 18.9033L16.3852 19.3884L16.4823 19.4854C16.6763 19.6406 16.9013 19.8268 17.1264 20.0131C17.464 20.2925 17.8016 20.5719 18.0344 20.7465C18.3201 20.9608 18.711 21.1225 18.9747 21.2316C19.0692 21.2706 19.1474 21.303 19.1986 21.3286C19.5866 21.4256 19.8776 21.3286 20.0716 21.1345L21.3328 19.8734C21.8178 19.4854 22.2059 19.7764 22.3029 19.8734L24.2431 21.8136C24.7282 22.2987 24.4371 22.6867 24.3401 22.7837L23.176 23.9479C23.079 24.1419 22.7879 24.3359 22.4969 24.4329C22.2059 24.5299 21.4298 24.6269 20.2657 24.2389C19.1015 23.8508 18.2284 23.3658 17.1613 22.6867Z" fill="#42C6A5"/>
</svg>
