<svg width="36" height="36" viewBox="0 0 36 36" fill="none" xmlns="http://www.w3.org/2000/svg">
<circle cx="18" cy="18" r="18" fill="#F3FFFC"/>
<path fill-rule="evenodd" clip-rule="evenodd" d="M27.7863 16.4537C27.8282 16.5585 27.8492 16.6634 27.8701 16.7892C27.8701 16.8311 27.8701 16.873 27.8282 16.9359V25.763C27.8282 26.0984 27.7024 26.4129 27.4718 26.6436C27.2411 26.8532 26.9266 27 26.5911 27H10.237C9.90157 27 9.58707 26.8742 9.35644 26.6436C9.14677 26.4129 9 26.0984 9 25.763V16.9359C9 16.7472 9.04193 16.6005 9.10483 16.4327V16.4118C9.1887 16.2231 9.3145 16.0553 9.48224 15.9295L11.7257 14.1054V12.3232C11.7257 11.6313 12.2918 11.0652 12.9837 11.0652H15.4578L17.6383 9.28305C18.0996 8.90565 18.7705 8.90565 19.2318 9.28305L21.4123 11.0652H23.8864C24.5783 11.0652 25.1444 11.6313 25.1444 12.3232V14.1054L27.4089 15.9715C27.5766 16.0973 27.7024 16.265 27.7863 16.4537ZM26.8219 16.5586L25.1445 15.1958V18.1941L26.8219 16.5586ZM18.1621 9.93296C18.246 9.87006 18.3299 9.82812 18.4347 9.82812C18.5395 9.82812 18.6234 9.87006 18.7073 9.93296L20.0911 11.0652H16.7783L18.1621 9.93296ZM12.9837 11.9039C12.7531 11.9039 12.5644 12.0926 12.5644 12.3232V19.0116L12.6063 19.0326L14.7449 21.1293H22.1252L24.2638 19.0326L24.3058 19.0116V12.3232C24.3058 12.0926 24.1171 11.9039 23.8864 11.9039H12.9837ZM11.7262 15.1958V18.1941L10.0488 16.5586L11.7262 15.1958ZM9.83887 17.5229V25.5952L13.9693 21.5486L9.83887 17.5229ZM10.4463 26.1614L14.7445 21.968H22.1248L26.423 26.1614H10.4463ZM22.9014 21.5486L27.0318 25.5952V17.5229L22.9014 21.5486ZM18.4347 20.2907C18.9169 20.2907 19.3992 20.2069 19.8604 20.0182C20.0701 19.9343 20.1749 19.6827 20.0911 19.473C20.0072 19.2634 19.7556 19.1585 19.5459 19.2424C19.1895 19.3892 18.8331 19.4521 18.4557 19.4521C17.9105 19.4521 17.3864 19.3053 16.9461 19.0327C16.0864 18.5085 15.5203 17.586 15.5203 16.5167C15.5203 14.9023 16.8412 13.5813 18.4557 13.5813C20.0701 13.5813 21.391 14.9023 21.391 16.5167V16.7264C21.391 17.0618 21.1184 17.3554 20.762 17.3554C20.4056 17.3554 20.133 17.0618 20.133 16.7264V16.5167C20.133 15.5942 19.3782 14.8394 18.4557 14.8394C17.5331 14.8394 16.7783 15.5942 16.7783 16.5167C16.7783 17.4392 17.5331 18.194 18.4557 18.194C18.9169 18.194 19.3572 18.0053 19.6508 17.6908C19.9233 18.0053 20.3217 18.194 20.762 18.194C21.5797 18.194 22.2297 17.5441 22.2297 16.7264V16.5167C22.2297 14.441 20.5314 12.7427 18.4557 12.7427C16.38 12.7427 14.6816 14.441 14.6816 16.5167C14.6816 17.4812 15.059 18.3618 15.6461 19.0327C16.3171 19.8085 17.3235 20.2907 18.4347 20.2907ZM17.5967 16.5167C17.5967 16.9779 17.9741 17.3553 18.4354 17.3553C18.8966 17.3553 19.274 16.9779 19.274 16.5167C19.274 16.0554 18.8966 15.678 18.4354 15.678C17.9741 15.678 17.5967 16.0554 17.5967 16.5167Z" fill="black"/>
</svg>
