<svg width="25" height="25" viewBox="0 0 25 25" fill="none" xmlns="http://www.w3.org/2000/svg">
<path fill-rule="evenodd" clip-rule="evenodd" d="M5.07934 12.3986C5.07934 11.5932 5.21301 10.821 5.45188 10.0969L1.27318 6.90601C0.458746 8.55947 0 10.4227 0 12.3986C0 14.3728 0.458359 16.2348 1.27143 17.8872L5.44781 14.6902C5.21127 13.9693 5.07934 13.2 5.07934 12.3986Z" fill="#FBBC05"/>
<path fill-rule="evenodd" clip-rule="evenodd" d="M12.4162 5.07217C14.1657 5.07217 15.746 5.6921 16.9876 6.70645L20.5994 3.09964C18.3985 1.18348 15.5767 0 12.4162 0C7.50947 0 3.29241 2.80595 1.27319 6.90599L5.4517 10.0969C6.41452 7.1743 9.15906 5.07217 12.4162 5.07217Z" fill="#EA4335"/>
<path fill-rule="evenodd" clip-rule="evenodd" d="M12.4162 19.7249C9.15925 19.7249 6.41472 17.6228 5.45189 14.7002L1.27319 17.8905C3.29241 21.9911 7.50947 24.7971 12.4162 24.7971C15.4445 24.7971 18.3359 23.7217 20.5059 21.7069L16.5395 18.6406C15.4203 19.3456 14.011 19.7249 12.4162 19.7249Z" fill="#34A853"/>
<path fill-rule="evenodd" clip-rule="evenodd" d="M24.2678 12.3985C24.2678 11.6658 24.1549 10.8768 23.9855 10.1443H12.4161V14.9346H19.0757C18.7427 16.5679 17.8364 17.8234 16.5394 18.6406L20.5058 21.7069C22.7852 19.5914 24.2678 16.4398 24.2678 12.3985Z" fill="#4285F4"/>
</svg>
