<svg width="127" height="121" viewBox="0 0 127 121" fill="none" xmlns="http://www.w3.org/2000/svg">
<g filter="url(#filter0_d_1_1398)">
<path fill-rule="evenodd" clip-rule="evenodd" d="M16 58.0001C16 35.9087 33.9086 18.0001 56 18.0001C78.0914 18.0001 96 35.9087 96 58.0001C96 80.0914 78.0914 98.0001 56 98.0001C33.9086 98.0001 16 80.0914 16 58.0001Z" fill="white"/>
</g>
<path fill-rule="evenodd" clip-rule="evenodd" d="M17.667 58.0001C17.667 37.0132 34.6802 20.0001 55.667 20.0001C76.6538 20.0001 93.667 37.0132 93.667 58.0001C93.667 78.9869 76.6538 96.0001 55.667 96.0001C34.6802 96.0001 17.667 78.9869 17.667 58.0001Z" fill="#D8D8D8"/>
<mask id="mask0_1_1398" style="mask-type:alpha" maskUnits="userSpaceOnUse" x="17" y="20" width="77" height="76">
<path fill-rule="evenodd" clip-rule="evenodd" d="M17.667 58.0001C17.667 37.0132 34.6802 20.0001 55.667 20.0001C76.6538 20.0001 93.667 37.0132 93.667 58.0001C93.667 78.9869 76.6538 96.0001 55.667 96.0001C34.6802 96.0001 17.667 78.9869 17.667 58.0001Z" fill="white"/>
</mask>
<g mask="url(#mask0_1_1398)">
</g>
<defs>
<filter id="filter0_d_1_1398" x="-15" y="-12.9999" width="142" height="142" filterUnits="userSpaceOnUse" color-interpolation-filters="sRGB">
<feFlood flood-opacity="0" result="BackgroundImageFix"/>
<feColorMatrix in="SourceAlpha" type="matrix" values="0 0 0 0 0 0 0 0 0 0 0 0 0 0 0 0 0 0 127 0" result="hardAlpha"/>
<feOffset/>
<feGaussianBlur stdDeviation="15.5"/>
<feColorMatrix type="matrix" values="0 0 0 0 0.430067 0 0 0 0 0.430067 0 0 0 0 0.430067 0 0 0 0.12 0"/>
<feBlend mode="normal" in2="BackgroundImageFix" result="effect1_dropShadow_1_1398"/>
<feBlend mode="normal" in="SourceGraphic" in2="effect1_dropShadow_1_1398" result="shape"/>
</filter>
</defs>
</svg>
