<svg width="36" height="36" viewBox="0 0 36 36" fill="none" xmlns="http://www.w3.org/2000/svg">
<circle cx="18" cy="18" r="18" fill="#F3FFFC"/>
<path fill-rule="evenodd" clip-rule="evenodd" d="M18.4292 18.6602C15.7659 18.6602 13.5996 16.4939 13.5996 13.8296C13.5996 11.1663 15.7659 9 18.4292 9C21.0925 9 23.2587 11.1663 23.2587 13.8296C23.2587 16.4939 21.0925 18.6602 18.4292 18.6602ZM18.4295 10.5437C16.6172 10.5437 15.1436 12.0184 15.1436 13.8296C15.1436 15.6429 16.6172 17.1166 18.4295 17.1166C20.2417 17.1166 21.7154 15.6429 21.7154 13.8296C21.7154 12.0184 20.2417 10.5437 18.4295 10.5437ZM10 24.453C10 25.8577 11.1423 27 12.546 27H24.3137C25.7174 27 26.8608 25.8577 26.8608 24.453C26.8608 24.3995 26.764 19.0379 18.4294 19.0379C10.0967 19.0379 10 24.3995 10 24.453ZM12.5463 25.4564C11.9937 25.4564 11.5439 25.0067 11.5439 24.4613C11.547 24.3028 11.7014 20.5816 18.4297 20.5816C25.1589 20.5816 25.3143 24.3028 25.3174 24.453C25.3174 25.0067 24.8667 25.4564 24.314 25.4564H12.5463Z" fill="#42C6A5"/>
<path d="M11.5439 24.4613L11.3439 24.4574V24.4613H11.5439ZM25.3174 24.453H25.5175L25.5174 24.4489L25.3174 24.453ZM13.3996 13.8296C13.3996 16.6043 15.6554 18.8602 18.4292 18.8602V18.4602C15.8763 18.4602 13.7996 16.3835 13.7996 13.8296H13.3996ZM18.4292 8.8C15.6554 8.8 13.3996 11.0558 13.3996 13.8296H13.7996C13.7996 11.2767 15.8763 9.2 18.4292 9.2V8.8ZM23.4587 13.8296C23.4587 11.0558 21.2029 8.8 18.4292 8.8V9.2C20.982 9.2 23.0587 11.2767 23.0587 13.8296H23.4587ZM18.4292 18.8602C21.203 18.8602 23.4587 16.6043 23.4587 13.8296H23.0587C23.0587 16.3835 20.982 18.4602 18.4292 18.4602V18.8602ZM15.3436 13.8296C15.3436 12.1288 16.7277 10.7437 18.4295 10.7437V10.3437C16.5067 10.3437 14.9436 11.908 14.9436 13.8296H15.3436ZM18.4295 16.9166C16.7277 16.9166 15.3436 15.5325 15.3436 13.8296H14.9436C14.9436 15.7533 16.5067 17.3166 18.4295 17.3166V16.9166ZM21.5154 13.8296C21.5154 15.5325 20.1312 16.9166 18.4295 16.9166V17.3166C20.3522 17.3166 21.9154 15.7533 21.9154 13.8296H21.5154ZM18.4295 10.7437C20.1312 10.7437 21.5154 12.1288 21.5154 13.8296H21.9154C21.9154 11.908 20.3522 10.3437 18.4295 10.3437V10.7437ZM12.546 26.8C11.2528 26.8 10.2 25.7473 10.2 24.453H9.8C9.8 25.9681 11.0318 27.2 12.546 27.2V26.8ZM24.3137 26.8H12.546V27.2H24.3137V26.8ZM26.6608 24.453C26.6608 25.7472 25.607 26.8 24.3137 26.8V27.2C25.8278 27.2 27.0608 25.9682 27.0608 24.453H26.6608ZM18.4294 19.2379C22.5504 19.2379 24.594 20.5608 25.6137 21.8495C26.1268 22.4978 26.3888 23.1472 26.5225 23.637C26.6565 24.1277 26.6608 24.4548 26.6608 24.453H27.0608C27.0608 24.4023 27.0321 22.9973 25.9274 21.6012C24.8151 20.1957 22.643 18.8379 18.4294 18.8379V19.2379ZM10.2 24.453C10.2 24.4548 10.2043 24.1277 10.3383 23.637C10.4719 23.1472 10.7339 22.4978 11.2468 21.8494C12.2663 20.5608 14.3094 19.2379 18.4294 19.2379V18.8379C14.2167 18.8379 12.0451 20.1957 10.9331 21.6013C9.82862 22.9973 9.8 24.4023 9.8 24.453H10.2ZM11.3439 24.4613C11.3439 25.1181 11.8841 25.6564 12.5463 25.6564V25.2564C12.1032 25.2564 11.7439 24.8953 11.7439 24.4613H11.3439ZM18.4297 20.3816C15.0289 20.3816 13.2472 21.3229 12.3181 22.3261C11.3924 23.3256 11.3461 24.351 11.344 24.4574L11.7439 24.4652C11.7449 24.413 11.7773 23.4986 12.6116 22.5979C13.4425 21.7008 15.1022 20.7816 18.4297 20.7816V20.3816ZM25.5174 24.4489C25.5153 24.3466 25.4686 23.3233 24.5425 22.3249C23.613 21.3229 21.8309 20.3816 18.4297 20.3816V20.7816C21.7576 20.7816 23.4179 21.7008 24.2492 22.597C25.0839 23.4968 25.1165 24.4092 25.1175 24.4571L25.5174 24.4489ZM24.314 25.6564C24.977 25.6564 25.5174 25.1173 25.5174 24.453H25.1174C25.1174 24.8961 24.7563 25.2564 24.314 25.2564V25.6564ZM12.5463 25.6564H24.314V25.2564H12.5463V25.6564Z" fill="#E8FFF9"/>
</svg>
