<svg width="24" height="27" viewBox="0 0 24 27" fill="none" xmlns="http://www.w3.org/2000/svg">
<path fill-rule="evenodd" clip-rule="evenodd" d="M12.004 1C10.8228 1.0378 9.87407 1.98655 9.83627 3.16776V3.83713C6.10462 4.77463 3.50017 8.14536 3.53465 11.9928V18.807L1.08123 21.2492C1.0288 21.302 0.999574 21.3736 1 21.448V22.7056C1 22.8602 1.1254 22.9856 1.28008 22.9856H9.20331V23.1201C9.20331 24.6669 10.4572 25.9208 12.004 25.9208C13.5508 25.9208 14.8047 24.6669 14.8047 23.1201V22.9856H22.7196C22.8743 22.9856 22.9996 22.8602 22.9996 22.7056V21.448C23.0023 21.3748 22.9762 21.3034 22.9268 21.2492L20.4846 18.807V11.9956C20.5191 8.14816 17.9146 4.77743 14.183 3.83993V3.16776C14.1449 1.98236 13.1896 1.032 12.004 1ZM14.2448 23.1256C14.2448 24.3631 13.2417 25.3662 12.0042 25.3662C10.7668 25.3662 9.76367 24.3631 9.76367 23.1256V22.9856H14.2448V23.1256ZM19.9131 18.9219V11.9957C19.9414 8.32874 17.408 5.13868 13.8299 4.33575C13.7007 4.30527 13.6107 4.18834 13.6142 4.05568V3.16785C13.6142 2.27922 12.8939 1.55884 12.0052 1.55884C11.1166 1.55884 10.3962 2.27922 10.3962 3.16785V4.04728C10.3998 4.17993 10.3097 4.29687 10.1806 4.32735C6.59713 5.12867 4.06007 8.32392 4.0918 11.9957V18.9219C4.09223 18.9963 4.06301 19.0679 4.01058 19.1207L1.56835 21.563V22.4256H22.4365V21.563L19.9943 19.1207C19.9419 19.0679 19.9126 18.9963 19.9131 18.9219Z" fill="black"/>
<path d="M9.83627 3.16776L9.33652 3.15176L9.33627 3.15976V3.16776H9.83627ZM12.004 1L12.0175 0.500182L12.0028 0.499784L11.988 0.500256L12.004 1ZM9.83627 3.83713L9.9581 4.32206L10.3363 4.22705V3.83713H9.83627ZM3.53465 11.9928H4.03467L4.03463 11.9883L3.53465 11.9928ZM3.53465 18.807L3.8874 19.1613L4.03465 19.0147V18.807H3.53465ZM1.08123 21.2492L0.728475 20.8948L0.726235 20.8971L1.08123 21.2492ZM1 21.448H1.50001L1.5 21.4451L1 21.448ZM9.20331 22.9856H9.70331V22.4856H9.20331V22.9856ZM14.8047 22.9856V22.4856H14.3047V22.9856H14.8047ZM22.9996 21.448L22.5 21.4297L22.4996 21.4389V21.448H22.9996ZM22.9268 21.2492L23.2965 20.9125L23.2886 20.9039L23.2804 20.8956L22.9268 21.2492ZM20.4846 18.807H19.9846V19.0141L20.131 19.1605L20.4846 18.807ZM20.4846 11.9956L19.9846 11.9911V11.9956H20.4846ZM14.183 3.83993H13.683V4.22985L14.0612 4.32486L14.183 3.83993ZM14.183 3.16776H14.683V3.15972L14.6827 3.15169L14.183 3.16776ZM9.76367 22.9856V22.4856H9.26367V22.9856H9.76367ZM14.2448 22.9856H14.7448V22.4856H14.2448V22.9856ZM19.9131 11.9957L19.4131 11.9919V11.9957H19.9131ZM19.9131 18.9219L20.4131 18.9248V18.9219H19.9131ZM13.8299 4.33575L13.7151 4.82242L13.7204 4.82362L13.8299 4.33575ZM13.6142 4.05568L14.1142 4.06905V4.05568H13.6142ZM10.3962 4.04728H9.89604L9.8964 4.06064L10.3962 4.04728ZM10.1806 4.32735L10.2897 4.81533L10.2954 4.81398L10.1806 4.32735ZM4.0918 11.9957H4.59182L4.59178 11.9914L4.0918 11.9957ZM4.0918 18.9219H3.59179L3.59181 18.9248L4.0918 18.9219ZM4.01058 19.1207L4.36414 19.4743L4.36557 19.4728L4.01058 19.1207ZM1.56835 21.563L1.2148 21.2094L1.06835 21.3559V21.563H1.56835ZM1.56835 22.4256H1.06835V22.9256H1.56835V22.4256ZM22.4365 22.4256V22.9256H22.9365V22.4256H22.4365ZM22.4365 21.563H22.9365V21.3559L22.7901 21.2094L22.4365 21.563ZM19.9943 19.1207L19.6393 19.4729L19.6407 19.4743L19.9943 19.1207ZM10.336 3.18375C10.3654 2.26614 11.1024 1.52911 12.02 1.49974L11.988 0.500256C10.5432 0.546496 9.38276 1.70696 9.33652 3.15176L10.336 3.18375ZM10.3363 3.83713V3.16776H9.33627V3.83713H10.3363ZM4.03463 11.9883C4.00222 8.37176 6.45038 5.2033 9.9581 4.32206L9.71444 3.3522C5.75886 4.34595 2.99812 7.91896 3.03467 11.9973L4.03463 11.9883ZM4.03465 18.807V11.9928H3.03465V18.807H4.03465ZM1.43397 21.6035L3.8874 19.1613L3.18191 18.4526L0.728482 20.8948L1.43397 21.6035ZM1.5 21.4451C1.50033 21.5036 1.47738 21.5598 1.43622 21.6013L0.726235 20.8971C0.580215 21.0443 0.498814 21.2436 0.500013 21.4509L1.5 21.4451ZM1.5 22.7056V21.448H0.500005V22.7056H1.5ZM1.28008 22.4856C1.40154 22.4856 1.5 22.5841 1.5 22.7056H0.500005C0.500005 23.1364 0.849257 23.4856 1.28008 23.4856V22.4856ZM9.20331 22.4856H1.28008V23.4856H9.20331V22.4856ZM9.70331 23.1201V22.9856H8.70331V23.1201H9.70331ZM12.004 25.4208C10.7334 25.4208 9.70331 24.3907 9.70331 23.1201H8.70331C8.70331 24.943 10.1811 26.4208 12.004 26.4208V25.4208ZM14.3047 23.1201C14.3047 24.3907 13.2747 25.4208 12.004 25.4208V26.4208C13.827 26.4208 15.3047 24.943 15.3047 23.1201H14.3047ZM14.3047 22.9856V23.1201H15.3047V22.9856H14.3047ZM22.7196 22.4856H14.8047V23.4856H22.7196V22.4856ZM22.4996 22.7056C22.4996 22.5841 22.5981 22.4856 22.7196 22.4856V23.4856C23.1504 23.4856 23.4996 23.1364 23.4996 22.7056H22.4996ZM22.4996 21.448V22.7056H23.4996V21.448H22.4996ZM22.5572 21.5859C22.5184 21.5433 22.4979 21.4872 22.5 21.4297L23.4993 21.4664C23.5068 21.2623 23.434 21.0635 23.2965 20.9125L22.5572 21.5859ZM20.131 19.1605L22.5733 21.6027L23.2804 20.8956L20.8382 18.4534L20.131 19.1605ZM19.9846 11.9956V18.807H20.9846V11.9956H19.9846ZM14.0612 4.32486C17.5689 5.2061 20.017 8.37456 19.9846 11.9911L20.9846 12.0001C21.0211 7.92176 18.2604 4.34875 14.3048 3.355L14.0612 4.32486ZM13.683 3.16776V3.83993H14.683V3.16776H13.683ZM11.9905 1.49982C12.9115 1.52468 13.6536 2.26296 13.6832 3.18382L14.6827 3.15169C14.6361 1.70176 13.4677 0.539326 12.0175 0.500182L11.9905 1.49982ZM12.0042 25.8662C13.5178 25.8662 14.7448 24.6392 14.7448 23.1256H13.7448C13.7448 24.0869 12.9655 24.8662 12.0042 24.8662V25.8662ZM9.26367 23.1256C9.26367 24.6392 10.4907 25.8662 12.0042 25.8662V24.8662C11.0429 24.8662 10.2637 24.0869 10.2637 23.1256H9.26367ZM9.26367 22.9856V23.1256H10.2637V22.9856H9.26367ZM14.2448 22.4856H9.76367V23.4856H14.2448V22.4856ZM14.7448 23.1256V22.9856H13.7448V23.1256H14.7448ZM19.4131 11.9957V18.9219H20.4131V11.9957H19.4131ZM13.7204 4.82362C17.0688 5.575 19.4396 8.56028 19.4131 11.9919L20.413 11.9996C20.4432 8.0972 17.7472 4.70236 13.9394 3.84788L13.7204 4.82362ZM13.1144 4.04232C13.1045 4.41181 13.3553 4.73751 13.7151 4.82239L13.9447 3.84911C14.0461 3.87304 14.1168 3.96487 14.1141 4.06904L13.1144 4.04232ZM13.1142 3.16785V4.05568H14.1142V3.16785H13.1142ZM12.0052 2.05884C12.6177 2.05884 13.1142 2.55536 13.1142 3.16785H14.1142C14.1142 2.00308 13.17 1.05884 12.0052 1.05884V2.05884ZM10.8962 3.16785C10.8962 2.55536 11.3927 2.05884 12.0052 2.05884V1.05884C10.8405 1.05884 9.89622 2.00307 9.89622 3.16785H10.8962ZM10.8962 4.04728V3.16785H9.89622V4.04728H10.8962ZM10.2954 4.81398C10.6551 4.7291 10.9059 4.4034 10.896 4.03391L9.8964 4.06064C9.89361 3.95647 9.96432 3.86464 10.0657 3.84071L10.2954 4.81398ZM4.59178 11.9914C4.56209 8.55531 6.93628 5.56518 10.2897 4.8153L10.0714 3.8394C6.25798 4.69216 3.55806 8.09253 3.59182 12L4.59178 11.9914ZM4.5918 18.9219V11.9957H3.5918V18.9219H4.5918ZM4.36557 19.4728C4.51159 19.3256 4.59299 19.1263 4.59179 18.919L3.59181 18.9248C3.59147 18.8663 3.61442 18.8101 3.65559 18.7686L4.36557 19.4728ZM1.92191 21.9165L4.36413 19.4743L3.65703 18.7672L1.2148 21.2094L1.92191 21.9165ZM2.06835 22.4256V21.563H1.06835V22.4256H2.06835ZM22.4365 21.9256H1.56835V22.9256H22.4365V21.9256ZM21.9365 21.563V22.4256H22.9365V21.563H21.9365ZM19.6407 19.4743L22.083 21.9165L22.7901 21.2094L20.3478 18.7672L19.6407 19.4743ZM19.4131 18.919C19.4119 19.1263 19.4933 19.3256 19.6393 19.4728L20.3493 18.7686C20.3904 18.8101 20.4134 18.8663 20.413 18.9248L19.4131 18.919Z" fill="#002333"/>
<circle cx="18.1328" cy="7.74927" r="4.13428" fill="#FF1212" stroke="white"/>
</svg>
