<svg width="36" height="36" viewBox="0 0 36 36" fill="none" xmlns="http://www.w3.org/2000/svg">
<circle cx="18" cy="18" r="18" fill="#F3FFFC"/>
<path fill-rule="evenodd" clip-rule="evenodd" d="M14.9088 16.3635H21.4543V13.9091C21.4543 12.1016 19.989 10.6364 18.1816 10.6364C16.3741 10.6364 14.9088 12.1016 14.9088 13.9091V16.3635ZM23.0906 16.3635H23.9091C25.2647 16.3635 26.3636 17.4625 26.3636 18.8181V24.5453C26.3636 25.901 25.2647 26.9999 23.9091 26.9999H12.4545C11.0989 26.9999 10 25.901 10 24.5453V18.8181C10 17.4625 11.0989 16.3635 12.4545 16.3635H13.2725V13.9091C13.2725 11.1979 15.4703 9 18.1816 9C20.8928 9 23.0906 11.1979 23.0906 13.9091V16.3635ZM22.2725 18H14.0906H12.4549C12.003 18 11.6367 18.3663 11.6367 18.8182V24.5455C11.6367 24.9973 12.003 25.3636 12.4549 25.3636H23.9094C24.3613 25.3636 24.7276 24.9973 24.7276 24.5455V18.8182C24.7276 18.3663 24.3613 18 23.9094 18H22.2725Z" fill="#42C6A5"/>
<path d="M21.4543 16.3635V16.6635H21.7543V16.3635H21.4543ZM14.9088 16.3635H14.6088V16.6635H14.9088V16.3635ZM23.0906 16.3635H22.7906V16.6635H23.0906V16.3635ZM13.2725 16.3635V16.6635H13.5725V16.3635H13.2725ZM21.4543 16.0635H14.9088V16.6635H21.4543V16.0635ZM21.7543 16.3635V13.9091H21.1543V16.3635H21.7543ZM21.7543 13.9091C21.7543 11.9359 20.1547 10.3364 18.1816 10.3364V10.9364C19.8233 10.9364 21.1543 12.2673 21.1543 13.9091H21.7543ZM18.1816 10.3364C16.2084 10.3364 14.6088 11.9359 14.6088 13.9091H15.2088C15.2088 12.2673 16.5398 10.9364 18.1816 10.9364V10.3364ZM14.6088 13.9091V16.3635H15.2088V13.9091H14.6088ZM23.9091 16.0635H23.0906V16.6635H23.9091V16.0635ZM26.6636 18.8181C26.6636 17.2968 25.4304 16.0635 23.9091 16.0635V16.6635C25.099 16.6635 26.0636 17.6281 26.0636 18.8181H26.6636ZM26.6636 24.5453V18.8181H26.0636V24.5453H26.6636ZM23.9091 27.2999C25.4304 27.2999 26.6636 26.0666 26.6636 24.5453H26.0636C26.0636 25.7353 25.099 26.6999 23.9091 26.6999V27.2999ZM12.4545 27.2999H23.9091V26.6999H12.4545V27.2999ZM9.7 24.5453C9.7 26.0666 10.9333 27.2999 12.4545 27.2999V26.6999C11.2646 26.6999 10.3 25.7353 10.3 24.5453H9.7ZM9.7 18.8181V24.5453H10.3V18.8181H9.7ZM12.4545 16.0635C10.9333 16.0635 9.7 17.2968 9.7 18.8181H10.3C10.3 17.6281 11.2646 16.6635 12.4545 16.6635V16.0635ZM13.2725 16.0635H12.4545V16.6635H13.2725V16.0635ZM13.5725 16.3635V13.9091H12.9725V16.3635H13.5725ZM13.5725 13.9091C13.5725 11.3636 15.636 9.3 18.1816 9.3V8.7C15.3047 8.7 12.9725 11.0322 12.9725 13.9091H13.5725ZM18.1816 9.3C20.7271 9.3 22.7906 11.3636 22.7906 13.9091H23.3906C23.3906 11.0322 21.0585 8.7 18.1816 8.7V9.3ZM22.7906 13.9091V16.3635H23.3906V13.9091H22.7906ZM14.0906 18.3H22.2725V17.7H14.0906V18.3ZM12.4549 18.3H14.0906V17.7H12.4549V18.3ZM11.9367 18.8182C11.9367 18.532 12.1687 18.3 12.4549 18.3V17.7C11.8373 17.7 11.3367 18.2006 11.3367 18.8182H11.9367ZM11.9367 24.5455V18.8182H11.3367V24.5455H11.9367ZM12.4549 25.0636C12.1687 25.0636 11.9367 24.8316 11.9367 24.5455H11.3367C11.3367 25.163 11.8373 25.6636 12.4549 25.6636V25.0636ZM23.9094 25.0636H12.4549V25.6636H23.9094V25.0636ZM24.4276 24.5455C24.4276 24.8316 24.1956 25.0636 23.9094 25.0636V25.6636C24.527 25.6636 25.0276 25.163 25.0276 24.5455H24.4276ZM24.4276 18.8182V24.5455H25.0276V18.8182H24.4276ZM23.9094 18.3C24.1956 18.3 24.4276 18.532 24.4276 18.8182H25.0276C25.0276 18.2006 24.527 17.7 23.9094 17.7V18.3ZM22.2725 18.3H23.9094V17.7H22.2725V18.3Z" fill="#E8FFF9"/>
<path d="M14.9091 22.0909C14.4572 22.0909 14.0909 21.7246 14.0909 21.2727C14.0909 20.8208 14.4572 20.4545 14.9091 20.4545C15.3609 20.4545 15.7272 20.8208 15.7272 21.2727C15.7272 21.7246 15.3609 22.0909 14.9091 22.0909Z" fill="#42C6A5"/>
<path d="M18.1815 22.091C17.7296 22.091 17.3633 21.7246 17.3633 21.2728C17.3633 20.8209 17.7296 20.4546 18.1815 20.4546C18.6333 20.4546 18.9996 20.8209 18.9996 21.2728C18.9996 21.7246 18.6333 22.091 18.1815 22.091Z" fill="#42C6A5"/>
<path d="M21.4549 22.091C21.003 22.091 20.6367 21.7246 20.6367 21.2728C20.6367 20.8209 21.003 20.4546 21.4549 20.4546C21.9068 20.4546 22.2731 20.8209 22.2731 21.2728C22.2731 21.7246 21.9068 22.091 21.4549 22.091Z" fill="#42C6A5"/>
</svg>
