<svg width="18" height="20" viewBox="0 0 18 20" fill="none" xmlns="http://www.w3.org/2000/svg">
<path fill-rule="evenodd" clip-rule="evenodd" d="M8.9998 0C11.7311 0 13.9498 2.21342 13.9498 4.94949C13.9498 7.68557 11.7311 9.89899 8.9998 9.89899C6.26848 9.89899 4.0498 7.68557 4.0498 4.94949C4.0498 2.21342 6.26848 0 8.9998 0ZM17.9818 16.6559C17.7601 14.0956 15.6268 12.1212 13.05 12.1212H4.95L4.7388 12.1258L4.53582 12.1393C1.9796 12.36 0 14.4892 0 17.0707V19.0909L0.00605496 19.1969C0.0580436 19.6491 0.438448 20 0.9 20H17.1L17.205 19.9939C17.6526 19.9414 18 19.5571 18 19.0909V17.0707L17.9953 16.8592L17.9818 16.6559ZM4.97035 13.9392L13.0498 13.9394L13.2232 13.9441C14.8305 14.0309 16.1218 15.3171 16.1964 16.9232L16.2001 17.092L16.1998 18.1819H1.7998V17.0708L1.80448 16.8989C1.89146 15.3055 3.1805 14.0178 4.8003 13.9429L4.97035 13.9392ZM5.85 4.94949C5.85 3.22266 7.25782 1.81818 9 1.81818C10.7422 1.81818 12.15 3.22266 12.15 4.94949C12.15 6.67633 10.7422 8.08081 9 8.08081C7.25782 8.08081 5.85 6.67633 5.85 4.94949Z" fill="#A6A6A6"/>
</svg>
