<svg width="18" height="18" viewBox="0 0 18 18" fill="none" xmlns="http://www.w3.org/2000/svg">
<circle cx="9" cy="9" r="9" fill="#CC6F5C"/>
<circle cx="12.2402" cy="6.4799" r="1.08" fill="white"/>
<circle cx="5.76018" cy="6.4799" r="1.08" fill="white"/>
<path fill-rule="evenodd" clip-rule="evenodd" d="M8.99982 10.4399C10.8996 10.4399 12.5805 11.4299 13.5839 12.9308C13.6964 13.0979 13.711 13.3124 13.6221 13.4932C13.5422 13.6559 13.3894 13.769 13.2131 13.7995L13.1536 13.8066L13.087 13.8069C12.9107 13.7975 12.7475 13.7056 12.6484 13.5564C11.838 12.3442 10.5094 11.5626 8.99982 11.5626C7.4902 11.5626 6.16166 12.3442 5.35126 13.5564C5.26456 13.6869 5.12874 13.7736 4.97808 13.7996L4.91269 13.8069L4.8461 13.8066C4.64507 13.7935 4.46636 13.674 4.37751 13.4932C4.28866 13.3124 4.30324 13.0979 4.41573 12.9308C5.41911 11.4299 7.10005 10.4399 8.99982 10.4399Z" fill="white"/>
</svg>
