<svg width="32" height="32" viewBox="0 0 32 32" fill="none" xmlns="http://www.w3.org/2000/svg">
<circle cx="16" cy="16" r="16" fill="#33354E"/>
<circle cx="21.76" cy="11.52" r="1.92" fill="white"/>
<circle cx="10.24" cy="11.52" r="1.92" fill="white"/>
<path fill-rule="evenodd" clip-rule="evenodd" d="M16 24.5458C19.3774 24.5458 22.3657 22.7859 24.1495 20.1176C24.3495 19.8205 24.3754 19.4392 24.2174 19.1178C24.0753 18.8285 23.8037 18.6275 23.4903 18.5732L23.3844 18.5607L23.266 18.56C22.9527 18.5768 22.6625 18.7402 22.4863 19.0054C21.0456 21.1605 18.6838 22.55 16 22.55C13.3162 22.55 10.9544 21.1605 9.51366 19.0054C9.35952 18.7734 9.11807 18.6192 8.85022 18.5731L8.73398 18.56L8.61559 18.5607C8.25821 18.5839 7.94049 18.7963 7.78255 19.1178C7.6246 19.4392 7.65052 19.8205 7.8505 20.1176C9.63427 22.7859 12.6226 24.5458 16 24.5458Z" fill="white"/>
</svg>
