<svg width="18" height="18" viewBox="0 0 18 18" fill="none" xmlns="http://www.w3.org/2000/svg">
<circle cx="9" cy="9" r="9" fill="#5C97CC"/>
<circle cx="12.2402" cy="6.4799" r="1.08" fill="white"/>
<circle cx="5.76018" cy="6.4799" r="1.08" fill="white"/>
<path fill-rule="evenodd" clip-rule="evenodd" d="M8.99982 13.8071C10.8996 13.8071 12.5805 12.8172 13.5839 11.3163C13.6964 11.1492 13.711 10.9347 13.6221 10.7539C13.5422 10.5912 13.3894 10.4781 13.2131 10.4476L13.1536 10.4405L13.087 10.4401C12.9107 10.4496 12.7475 10.5415 12.6484 10.6907C11.838 11.9029 10.5094 12.6845 8.99982 12.6845C7.4902 12.6845 6.16166 11.9029 5.35126 10.6907C5.26456 10.5602 5.12874 10.4734 4.97808 10.4475L4.91269 10.4401L4.8461 10.4405C4.64507 10.4536 4.46636 10.5731 4.37751 10.7539C4.28866 10.9347 4.30324 11.1492 4.41573 11.3163C5.41911 12.8172 7.10005 13.8071 8.99982 13.8071Z" fill="white"/>
</svg>
