<svg width="22" height="9" viewBox="0 0 22 9" fill="none" xmlns="http://www.w3.org/2000/svg">
<path fill-rule="evenodd" clip-rule="evenodd" d="M7.60526 7.20536H4.05263C2.09057 7.20536 0.5 5.61479 0.5 3.65273C0.5 1.69067 2.09057 0.100098 4.05263 0.100098H9.73684C10.9555 0.101108 12.0886 0.726665 12.7387 1.75739C13.3889 2.78811 13.4653 4.08014 12.9413 5.18036C12.8441 5.42793 12.6167 5.60047 12.3521 5.62747C12.0875 5.65448 11.83 5.53144 11.6847 5.30861C11.5395 5.08579 11.5309 4.8005 11.6624 4.56931C11.7984 4.28291 11.8688 3.96978 11.8684 3.65273C11.8684 2.47549 10.9141 1.52115 9.73684 1.52115H4.05263C2.87539 1.52115 1.92105 2.47549 1.92105 3.65273C1.92105 4.82997 2.87539 5.78431 4.05263 5.78431H7.60526C7.99768 5.78431 8.31579 6.10242 8.31579 6.49483C8.31579 6.88725 7.99768 7.20536 7.60526 7.20536ZM14.7106 1.521H18.2633C20.2253 1.521 21.8159 3.11156 21.8159 5.07363C21.8159 7.03569 20.2253 8.62626 18.2633 8.62626H12.579C11.3881 8.62529 10.2768 8.02759 9.61943 7.03443C8.96209 6.04126 8.84614 4.78479 9.31063 3.6881C9.4029 3.44458 9.621 3.27106 9.87902 3.23586C10.137 3.20067 10.3937 3.30945 10.5478 3.51936C10.7019 3.72926 10.7288 4.00667 10.618 4.24231C10.3393 4.90032 10.4089 5.65421 10.8033 6.25011C11.1977 6.846 11.8644 7.20462 12.579 7.20521H18.2633C19.4405 7.20521 20.3948 6.25087 20.3948 5.07363C20.3948 3.89639 19.4405 2.94205 18.2633 2.94205H14.7106C14.3182 2.94205 14.0001 2.62394 14.0001 2.23152C14.0001 1.83911 14.3182 1.521 14.7106 1.521Z" fill="white"/>
</svg>
