<svg width="33" height="33" viewBox="0 0 33 33" fill="none" xmlns="http://www.w3.org/2000/svg">
<rect width="33" height="33" rx="8" fill="#1DA1F2"/>
<path d="M12.6466 24.4316C19.9024 24.4316 23.8703 18.4183 23.8703 13.2038C23.8703 13.033 23.8668 12.863 23.8591 12.6937C24.6312 12.1349 25.2975 11.4429 25.8268 10.6503C25.12 10.9646 24.3594 11.1762 23.5615 11.2716C24.3759 10.7831 25.0012 10.0102 25.2962 9.08896C24.5218 9.54849 23.6747 9.87243 22.7913 10.0468C22.0714 9.27978 21.0466 8.80005 19.9119 8.80005C17.7334 8.80005 15.9669 10.5673 15.9669 12.7457C15.9669 13.0554 16.0016 13.3565 16.0693 13.6454C12.7907 13.4804 9.88358 11.9101 7.93796 9.52246C7.58754 10.1247 7.40322 10.8091 7.40383 11.5059C7.40383 12.875 8.10022 14.0836 9.15926 14.7907C8.53282 14.7715 7.92014 14.6023 7.37272 14.2971C7.37214 14.3137 7.37214 14.3298 7.37214 14.3475C7.37214 16.2586 8.73185 17.8542 10.5368 18.2158C10.1978 18.3081 9.84802 18.3548 9.49666 18.3546C9.24292 18.3546 8.99563 18.3296 8.7553 18.2835C9.2575 19.8514 10.7137 20.9924 12.4403 21.0243C11.0901 22.0829 9.38939 22.7134 7.54092 22.7134C7.22647 22.7137 6.91228 22.6955 6.59998 22.6588C8.34579 23.7782 10.4188 24.4314 12.6468 24.4314" fill="white"/>
</svg>
