<svg width="32" height="32" viewBox="0 0 32 32" fill="none" xmlns="http://www.w3.org/2000/svg">
<circle cx="16" cy="16" r="16" fill="#33354E"/>
<circle cx="21.76" cy="11.52" r="1.92" fill="white"/>
<circle cx="10.24" cy="11.52" r="1.92" fill="white"/>
<path fill-rule="evenodd" clip-rule="evenodd" d="M16 18.56C19.3774 18.56 22.3657 20.3199 24.1495 22.9882C24.3495 23.2853 24.3754 23.6666 24.2174 23.988C24.0753 24.2773 23.8037 24.4783 23.4903 24.5325L23.3844 24.5451L23.266 24.5458C22.9527 24.529 22.6625 24.3655 22.4863 24.1004C21.0456 21.9453 18.6838 20.5558 16 20.5558C13.3162 20.5558 10.9544 21.9453 9.51366 24.1004C9.35952 24.3324 9.11807 24.4866 8.85022 24.5327L8.73398 24.5458L8.61559 24.5451C8.25821 24.5219 7.94049 24.3094 7.78255 23.988C7.6246 23.6666 7.65052 23.2853 7.8505 22.9882C9.63427 20.3199 12.6226 18.56 16 18.56Z" fill="white"/>
</svg>
