<svg width="30" height="30" viewBox="0 0 30 30" fill="none" xmlns="http://www.w3.org/2000/svg">
<circle cx="15" cy="15" r="14" fill="white" stroke="#59AEFD" stroke-width="2"/>
<path d="M13 9H17L18.3334 10.3333H21C21.1769 10.3333 21.3464 10.4036 21.4714 10.5286C21.5965 10.6536 21.6667 10.8232 21.6667 11V20.3333C21.6667 20.5101 21.5965 20.6797 21.4714 20.8047C21.3464 20.9298 21.1769 21 21 21H9.00004C8.82323 21 8.65366 20.9298 8.52864 20.8047C8.40361 20.6797 8.33337 20.5101 8.33337 20.3333V11C8.33337 10.8232 8.40361 10.6536 8.52864 10.5286C8.65366 10.4036 8.82323 10.3333 9.00004 10.3333H11.6667L13 9ZM15 19.6667C16.0609 19.6667 17.0783 19.2452 17.8285 18.4951C18.5786 17.7449 19 16.7275 19 15.6667C19 14.6058 18.5786 13.5884 17.8285 12.8382C17.0783 12.0881 16.0609 11.6667 15 11.6667C13.9392 11.6667 12.9218 12.0881 12.1716 12.8382C11.4215 13.5884 11 14.6058 11 15.6667C11 16.7275 11.4215 17.7449 12.1716 18.4951C12.9218 19.2452 13.9392 19.6667 15 19.6667ZM15 18.3333C14.2928 18.3333 13.6145 18.0524 13.1144 17.5523C12.6143 17.0522 12.3334 16.3739 12.3334 15.6667C12.3334 14.9594 12.6143 14.2811 13.1144 13.781C13.6145 13.281 14.2928 13 15 13C15.7073 13 16.3856 13.281 16.8857 13.781C17.3858 14.2811 17.6667 14.9594 17.6667 15.6667C17.6667 16.3739 17.3858 17.0522 16.8857 17.5523C16.3856 18.0524 15.7073 18.3333 15 18.3333Z" fill="#59AEFD"/>
</svg>
