<svg width="21" height="21" viewBox="0 0 21 21" fill="none" xmlns="http://www.w3.org/2000/svg">
<path fill-rule="evenodd" clip-rule="evenodd" d="M10.8739 19.0338C10.6818 18.9411 10.4578 18.9411 10.2656 19.0338L8.78432 19.7484C8.48168 19.8944 8.11799 19.8047 7.91786 19.5348L6.93834 18.2137C6.81126 18.0423 6.61295 17.9382 6.39971 17.931L4.75599 17.8753C4.42016 17.864 4.13979 17.6156 4.08802 17.2836L3.83467 15.6585C3.8018 15.4477 3.67457 15.2634 3.48911 15.1579L2.05952 14.3448C1.76744 14.1786 1.63462 13.8284 1.74307 13.5104L2.27393 11.9537C2.34279 11.7518 2.3158 11.5295 2.2006 11.3499L1.31265 9.96552C1.13123 9.68268 1.17638 9.31083 1.42022 9.07963L2.61367 7.948C2.76849 7.80119 2.84791 7.59178 2.82937 7.37922L2.68647 5.74078C2.65728 5.40603 2.87006 5.09776 3.19341 5.00636L4.77605 4.55897C4.98137 4.50093 5.14901 4.35242 5.23138 4.15559L5.86627 2.63841C5.99598 2.32844 6.32765 2.15436 6.65644 2.2237L8.26571 2.56305C8.47449 2.60707 8.69194 2.55347 8.85634 2.41747L10.1236 1.36912C10.3825 1.15494 10.7571 1.15494 11.016 1.36912L12.2832 2.41747C12.4476 2.55347 12.6651 2.60707 12.8738 2.56305L14.4831 2.2237C14.8119 2.15436 15.1436 2.32844 15.2733 2.63841L15.9082 4.15559C15.9905 4.35242 16.1582 4.50093 16.3635 4.55897L17.9461 5.00636C18.2695 5.09776 18.4823 5.40603 18.4531 5.74078L18.3102 7.37922C18.2916 7.59178 18.3711 7.80119 18.5259 7.948L19.7193 9.07963C19.9632 9.31083 20.0083 9.68268 19.8269 9.96552L18.9389 11.3499C18.8238 11.5295 18.7968 11.7518 18.8656 11.9537L19.3965 13.5104C19.5049 13.8284 19.3721 14.1786 19.08 14.3448L17.6504 15.1579C17.465 15.2634 17.3378 15.4477 17.3049 15.6585L17.0515 17.2836C16.9998 17.6156 16.7194 17.864 16.3836 17.8753L14.7398 17.931C14.5266 17.9382 14.3283 18.0423 14.2012 18.2137L13.2217 19.5348C13.0216 19.8047 12.6579 19.8944 12.3552 19.7484L10.8739 19.0338Z" fill="#2096F3" stroke="white"/>
<path d="M14.8227 9.13368C14.8227 9.28643 14.7664 9.41626 14.6537 9.52318L10.2833 13.6702L9.46233 14.4492C9.34965 14.5561 9.21282 14.6096 9.05185 14.6096C8.89088 14.6096 8.75405 14.5561 8.64137 14.4492L7.82041 13.6702L5.63521 11.5967C5.52253 11.4898 5.46619 11.3599 5.46619 11.2072C5.46619 11.0544 5.52253 10.9246 5.63521 10.8177L6.45617 10.0387C6.56885 9.93177 6.70568 9.87831 6.86665 9.87831C7.02762 9.87831 7.16445 9.93177 7.27713 10.0387L9.05185 11.7284L13.0118 7.96519C13.1245 7.85827 13.2613 7.80481 13.4223 7.80481C13.5832 7.80481 13.7201 7.85827 13.8327 7.96519L14.6537 8.74419C14.7664 8.85111 14.8227 8.98094 14.8227 9.13368Z" fill="white" stroke="#2096F3" stroke-width="0.7"/>
</svg>
