<svg width="32" height="32" viewBox="0 0 32 32" fill="none" xmlns="http://www.w3.org/2000/svg">
<circle cx="16" cy="16" r="16" fill="#33354E"/>
<path d="M13.2865 10.278C13.266 10.2147 13.2115 10.1683 13.1457 10.1583L11.1846 9.87228L10.3076 8.0979C10.2779 8.03794 10.2168 8 10.1499 8C10.0829 8 10.0218 8.03794 9.99207 8.0979L9.11509 9.87228L7.15475 10.154C7.08642 10.1624 7.02922 10.2098 7.00832 10.2754C6.98742 10.341 7.00665 10.4127 7.05754 10.459L8.4762 11.8446L8.14161 13.7937C8.13008 13.8598 8.1572 13.9268 8.21152 13.9663C8.26584 14.0058 8.33791 14.011 8.39731 13.9796L10.1499 13.0576L11.9031 13.9789C11.9625 14.0103 12.0346 14.0051 12.0889 13.9656C12.1432 13.9261 12.1703 13.8591 12.1588 13.793L11.8235 11.8446L13.2422 10.459C13.2903 10.4121 13.3075 10.3419 13.2865 10.278Z" fill="white"/>
<path d="M25.2865 10.278C25.266 10.2147 25.2115 10.1683 25.1457 10.1583L23.1846 9.87228L22.3076 8.0979C22.2779 8.03794 22.2168 8 22.1499 8C22.0829 8 22.0218 8.03794 21.9921 8.0979L21.1151 9.87228L19.1547 10.154C19.0864 10.1624 19.0292 10.2098 19.0083 10.2754C18.9874 10.341 19.0066 10.4127 19.0575 10.459L20.4762 11.8446L20.1416 13.7937C20.1301 13.8598 20.1572 13.9268 20.2115 13.9663C20.2658 14.0058 20.3379 14.011 20.3973 13.9796L22.1499 13.0576L23.9031 13.9789C23.9625 14.0103 24.0346 14.0051 24.0889 13.9656C24.1432 13.9261 24.1703 13.8591 24.1588 13.793L23.8235 11.8446L25.2422 10.459C25.2903 10.4121 25.3075 10.3419 25.2865 10.278Z" fill="white"/>
<path fill-rule="evenodd" clip-rule="evenodd" d="M16.32 24.9858C19.6974 24.9858 22.6857 23.2259 24.4695 20.5576C24.6695 20.2605 24.6954 19.8792 24.5374 19.5578C24.3953 19.2685 24.1237 19.0675 23.8103 19.0132L23.7044 19.0007L23.586 19C23.2727 19.0168 22.9825 19.1802 22.8063 19.4454C21.3656 21.6005 19.0038 22.99 16.32 22.99C13.6362 22.99 11.2744 21.6005 9.83367 19.4454C9.67953 19.2134 9.43808 19.0592 9.17022 19.0131L9.05399 19L8.93559 19.0007C8.57822 19.0239 8.2605 19.2363 8.10255 19.5578C7.94461 19.8792 7.97052 20.2605 8.17051 20.5576C9.95428 23.2259 12.9426 24.9858 16.32 24.9858Z" fill="white"/>
<path fill-rule="evenodd" clip-rule="evenodd" d="M9.05402 19H23.586L20.4475 23.198L16 24L13.5141 23.198L9.05402 19Z" fill="white"/>
</svg>
